# xmcd
# Track frame offsets:
# 150
# 12577
# 24660
# 36222
# 46082
# 57145
# 68467
# 79912
# 94317
# 103380
# 116410
# 137530
# 155292
# 168292
# 179730
# 199000
# 214025
# 230037
# 241670
# 254790
#
# Disc length: 3599 seconds
# Revision: 3
# Processed by: cddbd v1.4PL0 Copyright (c) Steve Scherf et al.
# Submitted via: VisiTrax 2.9.5.181 - For more info visit www.synapsa.com
#
DISCID=140e0d14
DTITLE=Marty Robbins - A Lifetime of Song 1951-1982
DYEAR=1983
DGENRE=Oldies
TTITLE0=Tomorrow You'll Be Gone
TTITLE1=I'll Go On Alone
TTITLE2=That's All Right
TTITLE3=Knee Deep in the Blues
TTITLE4=Singing the Blues
TTITLE5=A White Sport Coat
TTITLE6=The Story of My Life
TTITLE7=Don't Worry
TTITLE8=Ruby Ann
TTITLE9=Devil Woman
TTITLE10=El Paso
TTITLE11=Big Iron
TTITLE12=The Hanging Tree
TTITLE13=Ribbon of Darkness
TTITLE14=El Paso City
TTITLE15=I Walk Alone
TTITLE16=My Woman, My Woman, My Wife
TTITLE17=Among My Souvenirs
TTITLE18=Return to Me
TTITLE19=Some Memories Just Won't Die
EXTD=
EXTT0=
EXTT1=
EXTT2=
EXTT3=
EXTT4=
EXTT5=
EXTT6=
EXTT7=
EXTT8=
EXTT9=
EXTT10=
EXTT11=
EXTT12=
EXTT13=
EXTT14=
EXTT15=
EXTT16=
EXTT17=
EXTT18=
EXTT19=
PLAYORDER=
